<svg xmlns="http://www.w3.org/2000/svg" viewBox="0 0 24 24" fill="#ffffff">
  <path d="M7.03 4.95c-.56 0-1.07.22-1.46.59L4.7 6.41c-.38.39-.59.9-.59 1.45 0 .56.21 1.07.59 1.46l.56.56c.13-.52.39-1.01.77-1.42l.87-.87c.39-.39.9-.6 1.45-.6.41 0 .79.12 1.12.33l-.98-.98c-.39-.37-.91-.58-1.46-.59zm4.24 1.41c-.56 0-1.07.22-1.46.59l-.87.87c-.39.39-.59.9-.59 1.46 0 .55.21 1.06.59 1.45l2.73 2.73c.13-.52.39-1.01.77-1.42l.87-.87c.39-.39.9-.6 1.45-.6.41 0 .79.12 1.12.33l-3.15-3.15c-.39-.37-.91-.58-1.46-.59zm4.24 1.41c-.56 0-1.07.22-1.46.59l-.87.87c-.39.39-.59.9-.59 1.46 0 .55.21 1.06.59 1.45l4.91 4.91c.39.39.9.59 1.46.59.55 0 1.06-.2 1.45-.59l.87-.87c.39-.39.59-.9.59-1.46 0-.55-.2-1.06-.59-1.45l-4.91-4.91c-.39-.37-.9-.58-1.45-.59zM5.57 10.24c-.56 0-1.07.21-1.46.59L2.7 12.24c-.78.78-.78 2.05 0 2.83l6.36 6.36c.39.39.9.59 1.46.59.55 0 1.06-.2 1.45-.59l1.41-1.41c.39-.39.59-.9.59-1.46 0-.55-.2-1.06-.59-1.45l-6.36-6.36c-.38-.39-.89-.6-1.45-.61z"/>
</svg>
